<mxfile host="drawio-plugin" modified="2023-03-10T23:49:34.008Z" agent="5.0 (Macintosh; Intel Mac OS X 10_15_7) AppleWebKit/537.36 (KHTML, like Gecko) Chrome/98.0.4758.102 Safari/537.36" etag="o0bD8j6MAJC1mGnUbvS0" version="20.5.3" type="embed"><diagram id="Yo6Zvny2ZRX3JAPKxXua" name="Page 2"><mxGraphModel dx="1819" dy="809" grid="1" gridSize="10" guides="1" tooltips="1" connect="1" arrows="1" fold="1" page="1" pageScale="1" pageWidth="850" pageHeight="1100" math="0" shadow="0"><root><mxCell id="0"/><mxCell id="1" parent="0"/><mxCell id="8I9pphBKhg92I5GMk5e_-31" value="" style="graphMlID=e0;endArrow=none;strokeColor=#FF6392;strokeWidth=1.0;startArrow=diamond;startFill=0;endFill=1;exitX=1;exitY=0.25;exitDx=0;exitDy=0;fontColor=#5AA9E6;entryX=-0.008;entryY=-0.286;entryDx=0;entryDy=0;entryPerimeter=0;" parent="1" source="8I9pphBKhg92I5GMk5e_-50" target="8I9pphBKhg92I5GMk5e_-57" edge="1"><mxGeometry relative="1" as="geometry"/></mxCell><mxCell id="8I9pphBKhg92I5GMk5e_-32" value="" style="graphMlID=e1;endArrow=none;strokeColor=#FF6392;strokeWidth=1.0;startArrow=diamond;startFill=0;endFill=1;exitX=1;exitY=0.5;exitDx=0;exitDy=0;fontColor=#5AA9E6;entryX=0;entryY=0.5;entryDx=0;entryDy=0;" parent="1" source="8I9pphBKhg92I5GMk5e_-51" target="8I9pphBKhg92I5GMk5e_-61" edge="1"><mxGeometry relative="1" as="geometry"/></mxCell><mxCell id="8I9pphBKhg92I5GMk5e_-33" value="" style="graphMlID=e2;endArrow=none;strokeColor=#FF6392;strokeWidth=1.0;startArrow=diamond;startFill=0;endFill=1;fontColor=#5AA9E6;entryX=0;entryY=0.25;entryDx=0;entryDy=0;" parent="1" source="8I9pphBKhg92I5GMk5e_-60" target="8I9pphBKhg92I5GMk5e_-89" edge="1"><mxGeometry relative="1" as="geometry"><mxPoint x="648" y="240" as="sourcePoint"/></mxGeometry></mxCell><mxCell id="8I9pphBKhg92I5GMk5e_-34" value="" style="graphMlID=e3;endArrow=none;strokeColor=#FF6392;strokeWidth=1.0;startArrow=diamond;startFill=0;endFill=1;exitX=0.988;exitY=-0.077;exitDx=0;exitDy=0;exitPerimeter=0;fontColor=#5AA9E6;entryX=-0.023;entryY=0.105;entryDx=0;entryDy=0;entryPerimeter=0;" parent="1" source="8I9pphBKhg92I5GMk5e_-53" target="8I9pphBKhg92I5GMk5e_-64" edge="1"><mxGeometry relative="1" as="geometry"><mxPoint x="840" y="580" as="targetPoint"/></mxGeometry></mxCell><mxCell id="8I9pphBKhg92I5GMk5e_-35" value="" style="graphMlID=e4;endArrow=none;strokeColor=#FF6392;strokeWidth=1.0;startArrow=diamond;startFill=0;endFill=1;exitX=0.975;exitY=1;exitDx=0;exitDy=0;exitPerimeter=0;fontColor=#5AA9E6;entryX=0;entryY=0.5;entryDx=0;entryDy=0;" parent="1" source="8I9pphBKhg92I5GMk5e_-53" target="8I9pphBKhg92I5GMk5e_-71" edge="1"><mxGeometry relative="1" as="geometry"/></mxCell><mxCell id="8I9pphBKhg92I5GMk5e_-36" value="" style="graphMlID=e5;endArrow=none;strokeColor=#FF6392;strokeWidth=1.0;startArrow=diamond;startFill=0;endFill=1;fontColor=#5AA9E6;exitX=1.001;exitY=-0.077;exitDx=0;exitDy=0;exitPerimeter=0;" parent="1" source="8I9pphBKhg92I5GMk5e_-55" target="8I9pphBKhg92I5GMk5e_-82" edge="1"><mxGeometry relative="1" as="geometry"/></mxCell><mxCell id="8I9pphBKhg92I5GMk5e_-37" value="" style="graphMlID=e6;endArrow=none;strokeColor=#FF6392;strokeWidth=1.0;startArrow=diamond;startFill=0;endFill=1;fontColor=#5AA9E6;" parent="1" source="8I9pphBKhg92I5GMk5e_-64" target="8I9pphBKhg92I5GMk5e_-97" edge="1"><mxGeometry relative="1" as="geometry"/></mxCell><mxCell id="8I9pphBKhg92I5GMk5e_-38" value="" style="graphMlID=e7;endArrow=none;strokeColor=#FF6392;strokeWidth=1.0;startArrow=none;startFill=1;endFill=1;fontColor=#5AA9E6;entryX=0;entryY=0.25;entryDx=0;entryDy=0;exitX=1;exitY=0.5;exitDx=0;exitDy=0;" parent="1" target="8I9pphBKhg92I5GMk5e_-72" edge="1"><mxGeometry relative="1" as="geometry"><mxPoint x="800" y="561" as="sourcePoint"/></mxGeometry></mxCell><mxCell id="8I9pphBKhg92I5GMk5e_-39" value="" style="graphMlID=e8;endArrow=none;strokeColor=#FF6392;strokeWidth=1.0;startArrow=diamond;startFill=0;endFill=1;fontColor=#5AA9E6;exitX=1;exitY=0.5;exitDx=0;exitDy=0;entryX=0;entryY=0.5;entryDx=0;entryDy=0;" parent="1" source="8I9pphBKhg92I5GMk5e_-57" target="8I9pphBKhg92I5GMk5e_-86" edge="1"><mxGeometry relative="1" as="geometry"><mxPoint x="710" y="80" as="sourcePoint"/></mxGeometry></mxCell><mxCell id="8I9pphBKhg92I5GMk5e_-40" value="" style="graphMlID=e9;endArrow=none;strokeColor=#FF6392;strokeWidth=1.0;startArrow=diamond;startFill=0;endFill=1;fontColor=#5AA9E6;exitX=1;exitY=0.5;exitDx=0;exitDy=0;entryX=-0.013;entryY=0.08;entryDx=0;entryDy=0;entryPerimeter=0;" parent="1" source="8I9pphBKhg92I5GMk5e_-86" target="8I9pphBKhg92I5GMk5e_-105" edge="1"><mxGeometry relative="1" as="geometry"/></mxCell><mxCell id="8I9pphBKhg92I5GMk5e_-41" value="" style="graphMlID=e10;endArrow=none;strokeColor=#FF6392;strokeWidth=1.0;startArrow=diamond;startFill=0;endFill=1;fontColor=#5AA9E6;exitX=0.998;exitY=0.132;exitDx=0;exitDy=0;exitPerimeter=0;entryX=0.008;entryY=0.345;entryDx=0;entryDy=0;entryPerimeter=0;" parent="1" source="8I9pphBKhg92I5GMk5e_-85" target="8I9pphBKhg92I5GMk5e_-101" edge="1"><mxGeometry relative="1" as="geometry"/></mxCell><mxCell id="8I9pphBKhg92I5GMk5e_-43" value="" style="graphMlID=e12;endArrow=none;strokeColor=#FF6392;strokeWidth=1.0;startArrow=diamond;startFill=0;endFill=1;fontColor=#5AA9E6;exitX=0.999;exitY=0.387;exitDx=0;exitDy=0;exitPerimeter=0;entryX=-0.014;entryY=0.373;entryDx=0;entryDy=0;entryPerimeter=0;" parent="1" edge="1"><mxGeometry relative="1" as="geometry"><mxPoint x="1619.8400000000001" y="683.988" as="sourcePoint"/><mxPoint x="1487.7599999999998" y="311.36400000000003" as="targetPoint"/></mxGeometry></mxCell><mxCell id="8I9pphBKhg92I5GMk5e_-44" value="" style="graphMlID=e13;endArrow=none;strokeColor=#FF6392;strokeWidth=1.0;startArrow=none;startFill=1;endFill=1;fontColor=#5AA9E6;entryX=0.528;entryY=0.978;entryDx=0;entryDy=0;entryPerimeter=0;exitX=0.57;exitY=-0.037;exitDx=0;exitDy=0;exitPerimeter=0;" parent="1" source="8I9pphBKhg92I5GMk5e_-60" target="8I9pphBKhg92I5GMk5e_-57" edge="1"><mxGeometry relative="1" as="geometry"/></mxCell><mxCell id="8I9pphBKhg92I5GMk5e_-50" value="VirtualWorld" style="swimlane;fontStyle=1;align=center;verticalAlign=top;childLayout=stackLayout;horizontal=1;startSize=20;horizontalStack=0;resizeParent=1;resizeParentMax=0;resizeLast=0;collapsible=1;marginBottom=0;hachureGap=4;pointerEvents=0;fillColor=#FFE45E;strokeColor=#FF6392;fontColor=#5AA9E6;" parent="1" vertex="1"><mxGeometry x="20" y="150" width="300" height="610" as="geometry"/></mxCell><mxCell id="8I9pphBKhg92I5GMk5e_-51" value="+TIMER_ACTION_PERIOD: int         &lt;&lt;static&gt;&gt;&#10;+VIEW_WIDTH: int                          &lt;&lt;static&gt;&gt;&#10;+VIEW_HEIGHT: int                         &lt;&lt;static&gt;&gt;&#10;+TILE_WIDTH: int                           &lt;&lt;static&gt;&gt;&#10;+TILE_HEIGHT: int                          &lt;&lt;static&gt;&gt;&#10;+WORLD_WIDTH_SCALE: int           &lt;&lt;static&gt;&gt;&#10;+WORLD_HEIGHT_SCALE: int          &lt;&lt;static&gt;&gt;&#10;+VIEW_COLS: int                             &lt;&lt;static&gt;&gt;&#10;+VIEW_ROWS: int                            &lt;&lt;static&gt;&gt;&#10;+WORLD_COLS: int                         &lt;&lt;static&gt;&gt;&#10;+WORLD_ROWS: int                        &lt;&lt;static&gt;&gt;&#10;+IMAGE_LIST_FILE_NAME: String    &lt;&lt;static&gt;&gt;&#10;+DEFAULT_IMAGE_NAME: String    &lt;&lt;static&gt;&gt;&#10;+DEFAULT_IMAGE_COLOR: int       &lt;&lt;static&gt;&gt;&#10;+LOAD_FILE_NAME: String            &lt;&lt;static&gt;&gt;&#10;+FAST_FLAG: String                      &lt;&lt;static&gt;&gt;&#10;+FASTER_FLAG: String                  &lt;&lt;static&gt;&gt;&#10;+FASTEST_FLAG: String                &lt;&lt;static&gt;&gt;&#10;+FAST_SCALE: double                  &lt;&lt;static&gt;&gt;&#10;+FASTER_SCALE: double              &lt;&lt;static&gt;&gt;&#10;+FASTEST_SCALE: double            &lt;&lt;static&gt;&gt;&#10;+timeScale: double&#10;+imageStore: ImageStore&#10;+world: WorldModel&#10;+view: WorldView&#10;+scheduler: EventScheduler" style="text;strokeColor=none;fillColor=none;align=left;verticalAlign=top;spacingLeft=4;spacingRight=4;overflow=hidden;rotatable=0;points=[[0,0.5],[1,0.5]];portConstraint=eastwest;fontColor=#5AA9E6;" parent="8I9pphBKhg92I5GMk5e_-50" vertex="1"><mxGeometry y="20" width="300" height="380" as="geometry"/></mxCell><mxCell id="8I9pphBKhg92I5GMk5e_-52" value="" style="line;strokeWidth=1;fillColor=none;align=left;verticalAlign=middle;spacingTop=-1;spacingLeft=3;spacingRight=3;rotatable=0;labelPosition=right;points=[];portConstraint=eastwest;strokeColor=#FF6392;fontColor=#5AA9E6;" parent="8I9pphBKhg92I5GMk5e_-50" vertex="1"><mxGeometry y="400" width="300" height="8" as="geometry"/></mxCell><mxCell id="8I9pphBKhg92I5GMk5e_-53" value="+settings()&#10;+setup()&#10;+draw()&#10;+mousePressed()&#10;-mouseToPoint()&#10;+keyPressed()&#10;+createDefaultBackground()         &lt;&lt;static&gt;&gt;&#10;+createImageColored()                 &lt;&lt;static&gt;&gt;&#10;+loadWorld()                                 &lt;&lt;static&gt;&gt;&#10;+loadWorld()                                 &lt;&lt;static&gt;&gt;&#10;+scheduleActions()                       &lt;&lt;static&gt;&gt;&#10;+parseCommandLine()                  &lt;&lt;static&gt;&gt;&#10;+main()                                         &lt;&lt;static&gt;&gt;" style="text;strokeColor=none;fillColor=none;align=left;verticalAlign=top;spacingLeft=4;spacingRight=4;overflow=hidden;rotatable=0;points=[[0,0.5],[1,0.5]];portConstraint=eastwest;fontColor=#5AA9E6;" parent="8I9pphBKhg92I5GMk5e_-50" vertex="1"><mxGeometry y="408" width="300" height="202" as="geometry"/></mxCell><mxCell id="8I9pphBKhg92I5GMk5e_-54" value="WorldModel" style="swimlane;fontStyle=1;align=center;verticalAlign=top;childLayout=stackLayout;horizontal=1;startSize=26;horizontalStack=0;resizeParent=1;resizeParentMax=0;resizeLast=0;collapsible=1;marginBottom=0;hachureGap=4;pointerEvents=0;sketch=0;fontColor=#5AA9E6;strokeColor=#FF6392;fillColor=#FFE45E;" parent="1" vertex="1"><mxGeometry x="520" y="130" width="280" height="390" as="geometry"/></mxCell><mxCell id="8I9pphBKhg92I5GMk5e_-55" value="+numRows: int&#10;+numCols: int&#10;+background: Background[][]&#10;+occupancy: Entity[][]&#10;+entities: Set&lt;Entity&gt;" style="text;strokeColor=none;fillColor=none;align=left;verticalAlign=top;spacingLeft=4;spacingRight=4;overflow=hidden;rotatable=0;points=[[0,0.5],[1,0.5]];portConstraint=eastwest;fontColor=#000000;" parent="8I9pphBKhg92I5GMk5e_-54" vertex="1"><mxGeometry y="26" width="280" height="94" as="geometry"/></mxCell><mxCell id="8I9pphBKhg92I5GMk5e_-56" value="" style="line;strokeWidth=1;fillColor=none;align=left;verticalAlign=middle;spacingTop=-1;spacingLeft=3;spacingRight=3;rotatable=0;labelPosition=right;points=[];portConstraint=eastwest;strokeColor=#FF6392;fontColor=#5AA9E6;" parent="8I9pphBKhg92I5GMk5e_-54" vertex="1"><mxGeometry y="120" width="280" height="8" as="geometry"/></mxCell><mxCell id="8I9pphBKhg92I5GMk5e_-57" value="+parseBackground(): boolean                  &#10;+parseSapling(): boolean                       &#10;+parseDude(): boolean                    &#10;+parseFairy(): boolean                         &#10;+parseTree(): boolean                       &#10;+parseObstacle(): boolean                     &#10;+parseHouse(): boolean  &#10;+withinBounds(): boolean&#10;+removeEntity()                              &#10;+removeEntityAt()  &#10;+getBackgroundCell(): Background&#10;+getBackgroundImage(): Optional&lt;PImage&gt;&#10;+tryAddEntity() &#10;+load() &#10;+getCurrentImage(): PImage&#10;+getOccupant(): Optional&lt;Entity&gt;&#10;+isOccupied(): boolean &#10;  &#10;&#10;&#10; &#10;&#10;&#10;                          &#10;      &#10;" style="text;strokeColor=none;fillColor=none;align=left;verticalAlign=top;spacingLeft=4;spacingRight=4;overflow=hidden;rotatable=0;points=[[0,0.5],[1,0.5]];portConstraint=eastwest;fontColor=#020405;" parent="8I9pphBKhg92I5GMk5e_-54" vertex="1"><mxGeometry y="128" width="280" height="262" as="geometry"/></mxCell><mxCell id="8I9pphBKhg92I5GMk5e_-60" value="WorldView" style="swimlane;fontStyle=1;align=center;verticalAlign=top;childLayout=stackLayout;horizontal=1;startSize=26;horizontalStack=0;resizeParent=1;resizeParentMax=0;resizeLast=0;collapsible=1;marginBottom=0;hachureGap=4;pointerEvents=0;sketch=0;fontColor=#5AA9E6;strokeColor=#FF6392;fillColor=#FFE45E;" parent="1" vertex="1"><mxGeometry x="520" y="622" width="280" height="190" as="geometry"/></mxCell><mxCell id="8I9pphBKhg92I5GMk5e_-61" value="+screen: PApplet&#10;+world: WorldModel&#10;+tileWidth: int&#10;+tileHeight: int&#10;+viewport: Viewport" style="text;strokeColor=none;fillColor=none;align=left;verticalAlign=top;spacingLeft=4;spacingRight=4;overflow=hidden;rotatable=0;points=[[0,0.5],[1,0.5]];portConstraint=eastwest;fontColor=#000000;" parent="8I9pphBKhg92I5GMk5e_-60" vertex="1"><mxGeometry y="26" width="280" height="84" as="geometry"/></mxCell><mxCell id="8I9pphBKhg92I5GMk5e_-62" value="" style="line;strokeWidth=1;fillColor=none;align=left;verticalAlign=middle;spacingTop=-1;spacingLeft=3;spacingRight=3;rotatable=0;labelPosition=right;points=[];portConstraint=eastwest;strokeColor=#FF6392;fontColor=#5AA9E6;" parent="8I9pphBKhg92I5GMk5e_-60" vertex="1"><mxGeometry y="110" width="280" height="8" as="geometry"/></mxCell><mxCell id="8I9pphBKhg92I5GMk5e_-63" value="+shiftView()                                 &#10;+drawBackground()                            &#10;+drawEntities()                              &#10;+drawViewport()            &#10;" style="text;strokeColor=none;fillColor=none;align=left;verticalAlign=top;spacingLeft=4;spacingRight=4;overflow=hidden;rotatable=0;points=[[0,0.5],[1,0.5]];portConstraint=eastwest;fontColor=#000000;" parent="8I9pphBKhg92I5GMk5e_-60" vertex="1"><mxGeometry y="118" width="280" height="72" as="geometry"/></mxCell><mxCell id="8I9pphBKhg92I5GMk5e_-64" value="EventScheduler" style="swimlane;fontStyle=1;align=center;verticalAlign=top;childLayout=stackLayout;horizontal=1;startSize=26;horizontalStack=0;resizeParent=1;resizeParentMax=0;resizeLast=0;collapsible=1;marginBottom=0;hachureGap=4;pointerEvents=0;sketch=0;fontColor=#5AA9E6;strokeColor=#FF6392;fillColor=#FFE45E;" parent="1" vertex="1"><mxGeometry x="520" y="840" width="280" height="270" as="geometry"/></mxCell><mxCell id="8I9pphBKhg92I5GMk5e_-65" value="+eventQueue: PriorityQueue&lt;Event&gt;&#10;+pendingEvents: Map&lt;Entity, List&lt;Event&gt;&gt;&#10;+timeScale: double" style="text;strokeColor=none;fillColor=none;align=left;verticalAlign=top;spacingLeft=4;spacingRight=4;overflow=hidden;rotatable=0;points=[[0,0.5],[1,0.5]];portConstraint=eastwest;fontColor=#000000;" parent="8I9pphBKhg92I5GMk5e_-64" vertex="1"><mxGeometry y="26" width="280" height="64" as="geometry"/></mxCell><mxCell id="8I9pphBKhg92I5GMk5e_-66" value="" style="line;strokeWidth=1;fillColor=none;align=left;verticalAlign=middle;spacingTop=-1;spacingLeft=3;spacingRight=3;rotatable=0;labelPosition=right;points=[];portConstraint=eastwest;strokeColor=#FF6392;fontColor=#5AA9E6;" parent="8I9pphBKhg92I5GMk5e_-64" vertex="1"><mxGeometry y="90" width="280" height="8" as="geometry"/></mxCell><mxCell id="8I9pphBKhg92I5GMk5e_-76" value="+updateOnTime()  &#10;+unscheduleAllEvents() &#10;+scheduleActions()  &#10;+scheduleEvent()&#10;+getAnimationPeriod(): int&#10;+removePendingEvent()&#10;&#10;      &#10;                                                      &#10;" style="text;strokeColor=none;fillColor=none;align=left;verticalAlign=top;spacingLeft=4;spacingRight=4;overflow=hidden;rotatable=0;points=[[0,0.5],[1,0.5]];portConstraint=eastwest;fontColor=#5AA9E6;" parent="8I9pphBKhg92I5GMk5e_-64" vertex="1"><mxGeometry y="98" width="280" height="172" as="geometry"/></mxCell><mxCell id="8I9pphBKhg92I5GMk5e_-68" value="ImageStore" style="swimlane;fontStyle=1;align=center;verticalAlign=top;childLayout=stackLayout;horizontal=1;startSize=26;horizontalStack=0;resizeParent=1;resizeParentMax=0;resizeLast=0;collapsible=1;marginBottom=0;hachureGap=4;pointerEvents=0;sketch=0;fontColor=#5AA9E6;strokeColor=#FF6392;fillColor=#FFE45E;" parent="1" vertex="1"><mxGeometry x="910" y="780" width="280" height="260" as="geometry"/></mxCell><mxCell id="8I9pphBKhg92I5GMk5e_-69" value="+images: Map&lt;String, List&lt;PImage&gt;&gt;&#10;+defaultImages: List&lt;PImage&gt;" style="text;strokeColor=none;fillColor=none;align=left;verticalAlign=top;spacingLeft=4;spacingRight=4;overflow=hidden;rotatable=0;points=[[0,0.5],[1,0.5]];portConstraint=eastwest;fontColor=#000000;" parent="8I9pphBKhg92I5GMk5e_-68" vertex="1"><mxGeometry y="26" width="280" height="54" as="geometry"/></mxCell><mxCell id="8I9pphBKhg92I5GMk5e_-70" value="" style="line;strokeWidth=1;fillColor=none;align=left;verticalAlign=middle;spacingTop=-1;spacingLeft=3;spacingRight=3;rotatable=0;labelPosition=right;points=[];portConstraint=eastwest;strokeColor=#FF6392;fontColor=#5AA9E6;" parent="8I9pphBKhg92I5GMk5e_-68" vertex="1"><mxGeometry y="80" width="280" height="8" as="geometry"/></mxCell><mxCell id="8I9pphBKhg92I5GMk5e_-71" value="+loadImages()  &#10;+getImageList(): List&lt;PImage&gt;&#10;+processImageLine()&#10;+getImages(): List&lt;PImage&gt;                   &#10;+setAlpha()&#10;+processLine(): boolean        &#10;" style="text;strokeColor=none;fillColor=none;align=left;verticalAlign=top;spacingLeft=4;spacingRight=4;overflow=hidden;rotatable=0;points=[[0,0.5],[1,0.5]];portConstraint=eastwest;fontColor=#000000;" parent="8I9pphBKhg92I5GMk5e_-68" vertex="1"><mxGeometry y="88" width="280" height="172" as="geometry"/></mxCell><mxCell id="8I9pphBKhg92I5GMk5e_-72" value="EventComparator" style="swimlane;fontStyle=1;align=center;verticalAlign=top;childLayout=stackLayout;horizontal=1;startSize=26;horizontalStack=0;resizeParent=1;resizeParentMax=0;resizeLast=0;collapsible=1;marginBottom=0;hachureGap=4;pointerEvents=0;sketch=0;fontColor=#5AA9E6;strokeColor=#FF6392;fillColor=#FFE45E;" parent="1" vertex="1"><mxGeometry x="850" y="580" width="240" height="134" as="geometry"/></mxCell><mxCell id="8I9pphBKhg92I5GMk5e_-73" value="+eventQueue: PriorityQueue&lt;Event&gt;&#10;+pendingEvents: Map&lt;Entity, List&lt;Event&gt;&gt;&#10;+timeScale: double" style="text;strokeColor=none;fillColor=none;align=left;verticalAlign=top;spacingLeft=4;spacingRight=4;overflow=hidden;rotatable=0;points=[[0,0.5],[1,0.5]];portConstraint=eastwest;fontColor=#000000;" parent="8I9pphBKhg92I5GMk5e_-72" vertex="1"><mxGeometry y="26" width="240" height="74" as="geometry"/></mxCell><mxCell id="8I9pphBKhg92I5GMk5e_-74" value="" style="line;strokeWidth=1;fillColor=none;align=left;verticalAlign=middle;spacingTop=-1;spacingLeft=3;spacingRight=3;rotatable=0;labelPosition=right;points=[];portConstraint=eastwest;strokeColor=#FF6392;fontColor=#5AA9E6;" parent="8I9pphBKhg92I5GMk5e_-72" vertex="1"><mxGeometry y="100" width="240" height="8" as="geometry"/></mxCell><mxCell id="8I9pphBKhg92I5GMk5e_-75" value="TODO" style="text;strokeColor=none;fillColor=none;align=left;verticalAlign=top;spacingLeft=4;spacingRight=4;overflow=hidden;rotatable=0;points=[[0,0.5],[1,0.5]];portConstraint=eastwest;fontColor=#000000;" parent="8I9pphBKhg92I5GMk5e_-72" vertex="1"><mxGeometry y="108" width="240" height="26" as="geometry"/></mxCell><mxCell id="8I9pphBKhg92I5GMk5e_-77" value="Functions" style="swimlane;fontStyle=1;align=center;verticalAlign=top;childLayout=stackLayout;horizontal=1;startSize=26;horizontalStack=0;resizeParent=1;resizeParentMax=0;resizeLast=0;collapsible=1;marginBottom=0;hachureGap=4;pointerEvents=0;sketch=0;fontColor=#5AA9E6;strokeColor=#FF6392;fillColor=#FFE45E;" parent="1" vertex="1"><mxGeometry x="1010" y="1130" width="360" height="1100" as="geometry"/></mxCell><mxCell id="8I9pphBKhg92I5GMk5e_-78" value="+rand: Random                                &lt;&lt;static&gt;&gt;&#10;&#10;+COLOR_MASK: int                             &lt;&lt;static&gt;&gt;&#10;+KEYED_IMAGE_MIN: int                        &lt;&lt;static&gt;&gt;&#10;+KEYED_RED_IDX: int                        &lt;&lt;static&gt;&gt;&#10;+KEYED_GREEN_IDX: int                        &lt;&lt;static&gt;&gt;&#10;+KEYED_BLUE_IDX: int                        &lt;&lt;static&gt;&gt;&#10;&#10;+PROPERTY_KEY: int                           &lt;&lt;static&gt;&gt;&#10;&#10;+PATH_KEYS: List&lt;String                    &lt;&lt;static&gt;&gt;&#10;&#10;+SAPLING_KEY: String                            &lt;&lt;static&gt;&gt;&#10;+SAPLING_HEALTH_LIMIT: int                               &lt;&lt;static&gt;&gt;&#10;+ SAPLING_ACTION_ANIMATION_PERIOD:  int     &lt;&lt;static&gt;&gt;&#10;+SAPLING_NUM_PROPERTIES: int                      &lt;&lt;static&gt;&gt;&#10;+SAPLING_ID: String                            &lt;&lt;static&gt;&gt;&#10;+SAPLING_COL: int                    &lt;&lt;static&gt;&gt;&#10;+SAPLING_ROW: int                                &lt;&lt;static&gt;&gt;&#10;+SAPLING_HEALTH: int                               &lt;&lt;static&gt;&gt;&#10;&#10;&#10;+BGND_KEY: String                            &lt;&lt;static&gt;&gt;&#10;+BGND_NUM_PROPERTIES: int                    &lt;&lt;static&gt;&gt;&#10;+BGND_ID: int                                &lt;&lt;static&gt;&gt;&#10;+BGND_COL: int                               &lt;&lt;static&gt;&gt;&#10;+BGND_ROW: int                               &lt;&lt;static&gt;&gt;&#10;&#10;+OBSTACLE_KEY: String                        &lt;&lt;static&gt;&gt;&#10;+OBSTACLE_NUM_PROPERTIES: int                &lt;&lt;static&gt;&gt;&#10;+OBSTACLE_ID: int                            &lt;&lt;static&gt;&gt;&#10;+OBSTACLE_COL: int                           &lt;&lt;static&gt;&gt;&#10;+OBSTACLE_ROW: int                           &lt;&lt;static&gt;&gt;&#10;+OBSTACLE_ANIMATION_PERIOD: int     &lt;&lt;static&gt;&gt;&#10;&#10;+DUDE_KEY: String                               &lt;&lt;static&gt;&gt;&#10;+DUDE_NUM_PROPERTIES: int                     &lt;&lt;static&gt;&gt;&#10;+DUDE_ID: String                           &lt;&lt;static&gt;&gt;&#10;+DUDE_COL: int                   &lt;&lt;static&gt;&gt;&#10;+DUDE_ROW: int                               &lt;&lt;static&gt;&gt;&#10;+DUDE_LIMIT: int                              &lt;&lt;static&gt;&gt;&#10;+DUDE_ACTION_PERIOD: int             &lt;&lt;static&gt;&gt;&#10;+DUDE_ANIMATION_PERIOD: int          &lt;&lt;static&gt;&gt;&#10;&#10;+HOUSE_KEY: String                           &lt;&lt;static&gt;&gt;&#10;+HOUSE_NUM_PROPERTIES: int                 &lt;&lt;static&gt;&gt;&#10;+HOUSE_ID: String                          &lt;&lt;static&gt;&gt;&#10;+HOUSE_COL: int                        &lt;&lt;static&gt;&gt;&#10;+HOUSE_ROW: int                       &lt;&lt;static&gt;&gt;&#10;&#10;+FAIRY_KEY: String                            &lt;&lt;static&gt;&gt;&#10;+FAIRY_NUM_PROPERTIES: int         &lt;&lt;static&gt;&gt;&#10;+ FAIRY_ID:  String                     &lt;&lt;static&gt;&gt;&#10;+FAIRY_COL: int                    &lt;&lt;static&gt;&gt;&#10;+FAIRY_ROW: int                                &lt;&lt;static&gt;&gt;&#10;+FAIRY_ANIMATION_PERIOD: int      &lt;&lt;static&gt;&gt;&#10;+FAIRY_ACTION_PERIOD: int      &lt;&lt;static&gt;&gt;&#10;&#10;+TREE_KEY: String                            &lt;&lt;static&gt;&gt;&#10;+TREE_NUM_PROPERTIES: int                      &lt;&lt;static&gt;&gt;&#10;+TREE_ID: String                            &lt;&lt;static&gt;&gt;&#10;+TREE_COL: int                    &lt;&lt;static&gt;&gt;&#10;+TREE_ROW: int                                &lt;&lt;static&gt;&gt;&#10;+TREE_ANIMATION_PERIOD: int      &lt;&lt;static&gt;&gt;&#10;+TREE_ACTION_PERIOD: int          &lt;&lt;static&gt;&gt;&#10;+SAPLING_HEALTH: int                               &lt;&lt;static&gt;&gt;&#10;" style="text;strokeColor=none;fillColor=none;align=left;verticalAlign=top;spacingLeft=4;spacingRight=4;overflow=hidden;rotatable=0;points=[[0,0.5],[1,0.5]];portConstraint=eastwest;fontColor=#000000;" parent="8I9pphBKhg92I5GMk5e_-77" vertex="1"><mxGeometry y="26" width="360" height="964" as="geometry"/></mxCell><mxCell id="8I9pphBKhg92I5GMk5e_-79" value="" style="line;strokeWidth=1;fillColor=none;align=left;verticalAlign=middle;spacingTop=-1;spacingLeft=3;spacingRight=3;rotatable=0;labelPosition=right;points=[];portConstraint=eastwest;strokeColor=#FF6392;fontColor=#5AA9E6;" parent="8I9pphBKhg92I5GMk5e_-77" vertex="1"><mxGeometry y="990" width="360" height="8" as="geometry"/></mxCell><mxCell id="8I9pphBKhg92I5GMk5e_-80" value="+clamp()                                      &lt;&lt;static&gt;&gt;&#10;+adjacent(): boolean                            &lt;&lt;static&gt;&gt;&#10;+getNumFromRange: int                     &lt;&lt;static&gt;&gt;&#10;+distanceSquared(): int                      &lt;&lt;static&gt;&gt;&#10;+getIntFromRange:int                         &lt;&lt;static&gt;&gt;" style="text;strokeColor=none;fillColor=none;align=left;verticalAlign=top;spacingLeft=4;spacingRight=4;overflow=hidden;rotatable=0;points=[[0,0.5],[1,0.5]];portConstraint=eastwest;fontColor=#000000;" parent="8I9pphBKhg92I5GMk5e_-77" vertex="1"><mxGeometry y="998" width="360" height="102" as="geometry"/></mxCell><mxCell id="8I9pphBKhg92I5GMk5e_-81" value="Background" style="swimlane;fontStyle=1;align=center;verticalAlign=top;childLayout=stackLayout;horizontal=1;startSize=26;horizontalStack=0;resizeParent=1;resizeParentMax=0;resizeLast=0;collapsible=1;marginBottom=0;hachureGap=4;pointerEvents=0;sketch=0;fontColor=#5AA9E6;strokeColor=#FF6392;fillColor=#FFE45E;" parent="1" vertex="1"><mxGeometry x="850" y="30" width="250" height="160" as="geometry"/></mxCell><mxCell id="8I9pphBKhg92I5GMk5e_-82" value="+id: String&#10;+images: List&lt;PImage&gt;&#10;+imageIndex: int" style="text;strokeColor=none;fillColor=none;align=left;verticalAlign=top;spacingLeft=4;spacingRight=4;overflow=hidden;rotatable=0;points=[[0,0.5],[1,0.5]];portConstraint=eastwest;" parent="8I9pphBKhg92I5GMk5e_-81" vertex="1"><mxGeometry y="26" width="250" height="84" as="geometry"/></mxCell><mxCell id="8I9pphBKhg92I5GMk5e_-83" value="" style="line;strokeWidth=1;fillColor=none;align=left;verticalAlign=middle;spacingTop=-1;spacingLeft=3;spacingRight=3;rotatable=0;labelPosition=right;points=[];portConstraint=eastwest;" parent="8I9pphBKhg92I5GMk5e_-81" vertex="1"><mxGeometry y="110" width="250" height="8" as="geometry"/></mxCell><mxCell id="8I9pphBKhg92I5GMk5e_-84" value="+setBackground() &#10;+setBackgroundCell()      " style="text;strokeColor=none;fillColor=none;align=left;verticalAlign=top;spacingLeft=4;spacingRight=4;overflow=hidden;rotatable=0;points=[[0,0.5],[1,0.5]];portConstraint=eastwest;" parent="8I9pphBKhg92I5GMk5e_-81" vertex="1"><mxGeometry y="118" width="250" height="42" as="geometry"/></mxCell><mxCell id="8I9pphBKhg92I5GMk5e_-85" value="Entity" style="swimlane;fontStyle=1;align=center;verticalAlign=top;childLayout=stackLayout;horizontal=1;startSize=26;horizontalStack=0;resizeParent=1;resizeParentMax=0;resizeLast=0;collapsible=1;marginBottom=0;hachureGap=4;pointerEvents=0;sketch=0;fontColor=#5AA9E6;strokeColor=#FF6392;fillColor=#FFE45E;" parent="1" vertex="1"><mxGeometry x="1120" y="130" width="160" height="208" as="geometry"/></mxCell><mxCell id="8I9pphBKhg92I5GMk5e_-86" value="+kind: EntityKind&#10;+id: String&#10;+position: Point&#10;+images: List&lt;PImage&gt;&#10;+imageIndex: int&#10;+resourceLimit: int&#10;+resourceCount: int&#10;+actionPeriod: int&#10;+animationPeriod: int&#10;+health: int&#10;+healthLimit: int" style="text;strokeColor=none;fillColor=none;align=left;verticalAlign=top;spacingLeft=4;spacingRight=4;overflow=hidden;rotatable=0;points=[[0,0.5],[1,0.5]];portConstraint=eastwest;" parent="8I9pphBKhg92I5GMk5e_-85" vertex="1"><mxGeometry y="26" width="160" height="174" as="geometry"/></mxCell><mxCell id="8I9pphBKhg92I5GMk5e_-87" value="" style="line;strokeWidth=1;fillColor=none;align=left;verticalAlign=middle;spacingTop=-1;spacingLeft=3;spacingRight=3;rotatable=0;labelPosition=right;points=[];portConstraint=eastwest;" parent="8I9pphBKhg92I5GMk5e_-85" vertex="1"><mxGeometry y="200" width="160" height="8" as="geometry"/></mxCell><mxCell id="8I9pphBKhg92I5GMk5e_-89" value="Viewport" style="swimlane;fontStyle=1;align=center;verticalAlign=top;childLayout=stackLayout;horizontal=1;startSize=26;horizontalStack=0;resizeParent=1;resizeParentMax=0;resizeLast=0;collapsible=1;marginBottom=0;hachureGap=4;pointerEvents=0;sketch=0;fontColor=#5AA9E6;strokeColor=#FF6392;fillColor=#FFE45E;" parent="1" vertex="1"><mxGeometry x="850" y="302.04" width="230" height="200" as="geometry"/></mxCell><mxCell id="8I9pphBKhg92I5GMk5e_-90" value="+row: int&#10;+col: int&#10;+numRows: int&#10;+numCols: int" style="text;strokeColor=none;fillColor=none;align=left;verticalAlign=top;spacingLeft=4;spacingRight=4;overflow=hidden;rotatable=0;points=[[0,0.5],[1,0.5]];portConstraint=eastwest;" parent="8I9pphBKhg92I5GMk5e_-89" vertex="1"><mxGeometry y="26" width="230" height="74" as="geometry"/></mxCell><mxCell id="8I9pphBKhg92I5GMk5e_-91" value="" style="line;strokeWidth=1;fillColor=none;align=left;verticalAlign=middle;spacingTop=-1;spacingLeft=3;spacingRight=3;rotatable=0;labelPosition=right;points=[];portConstraint=eastwest;" parent="8I9pphBKhg92I5GMk5e_-89" vertex="1"><mxGeometry y="100" width="230" height="8" as="geometry"/></mxCell><mxCell id="8I9pphBKhg92I5GMk5e_-92" value="+viewportToWorld(): Point                    &#10;+worldToViewport(): Point  &#10;+contains(): boolean &#10;+shift() " style="text;strokeColor=none;fillColor=none;align=left;verticalAlign=top;spacingLeft=4;spacingRight=4;overflow=hidden;rotatable=0;points=[[0,0.5],[1,0.5]];portConstraint=eastwest;" parent="8I9pphBKhg92I5GMk5e_-89" vertex="1"><mxGeometry y="108" width="230" height="92" as="geometry"/></mxCell><mxCell id="8I9pphBKhg92I5GMk5e_-96" value="Event" style="swimlane;fontStyle=1;align=center;verticalAlign=top;childLayout=stackLayout;horizontal=1;startSize=26;horizontalStack=0;resizeParent=1;resizeParentMax=0;resizeLast=0;collapsible=1;marginBottom=0;hachureGap=4;pointerEvents=0;sketch=0;fontColor=#5AA9E6;strokeColor=#FF6392;fillColor=#FFE45E;" parent="1" vertex="1"><mxGeometry x="1430" y="1051" width="165" height="158" as="geometry"/></mxCell><mxCell id="8I9pphBKhg92I5GMk5e_-97" value="+action: Action&#10;+time: long&#10;+entity: Entity" style="text;strokeColor=none;fillColor=none;align=left;verticalAlign=top;spacingLeft=4;spacingRight=4;overflow=hidden;rotatable=0;points=[[0,0.5],[1,0.5]];portConstraint=eastwest;" parent="8I9pphBKhg92I5GMk5e_-96" vertex="1"><mxGeometry y="26" width="165" height="64" as="geometry"/></mxCell><mxCell id="8I9pphBKhg92I5GMk5e_-98" value="" style="line;strokeWidth=1;fillColor=none;align=left;verticalAlign=middle;spacingTop=-1;spacingLeft=3;spacingRight=3;rotatable=0;labelPosition=right;points=[];portConstraint=eastwest;" parent="8I9pphBKhg92I5GMk5e_-96" vertex="1"><mxGeometry y="90" width="165" height="8" as="geometry"/></mxCell><mxCell id="8I9pphBKhg92I5GMk5e_-99" value="TODO" style="text;strokeColor=none;fillColor=none;align=left;verticalAlign=top;spacingLeft=4;spacingRight=4;overflow=hidden;rotatable=0;points=[[0,0.5],[1,0.5]];portConstraint=eastwest;" parent="8I9pphBKhg92I5GMk5e_-96" vertex="1"><mxGeometry y="98" width="165" height="60" as="geometry"/></mxCell><mxCell id="8I9pphBKhg92I5GMk5e_-100" value="&lt;&lt;enumeration&gt;&gt;&#10;EntityKind" style="swimlane;fontStyle=1;align=center;verticalAlign=top;childLayout=stackLayout;horizontal=1;startSize=40;horizontalStack=0;resizeParent=1;resizeParentMax=0;resizeLast=0;collapsible=1;marginBottom=0;hachureGap=4;pointerEvents=0;sketch=0;fontColor=#5AA9E6;strokeColor=#FF6392;fillColor=#FFE45E;" parent="1" vertex="1"><mxGeometry x="1320" y="30" width="160" height="172" as="geometry"/></mxCell><mxCell id="8I9pphBKhg92I5GMk5e_-101" value="HOUSE&#10;DUDE_FULL&#10;DUDE_NOT_FULL&#10;OBSTACLE&#10;FAIRY&#10;STUMP&#10;SAPLING&#10;TREE" style="text;strokeColor=none;fillColor=none;align=left;verticalAlign=top;spacingLeft=4;spacingRight=4;overflow=hidden;rotatable=0;points=[[0,0.5],[1,0.5]];portConstraint=eastwest;" parent="8I9pphBKhg92I5GMk5e_-100" vertex="1"><mxGeometry y="40" width="160" height="124" as="geometry"/></mxCell><mxCell id="8I9pphBKhg92I5GMk5e_-102" value="" style="line;strokeWidth=1;fillColor=none;align=left;verticalAlign=middle;spacingTop=-1;spacingLeft=3;spacingRight=3;rotatable=0;labelPosition=right;points=[];portConstraint=eastwest;" parent="8I9pphBKhg92I5GMk5e_-100" vertex="1"><mxGeometry y="164" width="160" height="8" as="geometry"/></mxCell><mxCell id="8I9pphBKhg92I5GMk5e_-104" value="Point" style="swimlane;fontStyle=1;align=center;verticalAlign=top;childLayout=stackLayout;horizontal=1;startSize=26;horizontalStack=0;resizeParent=1;resizeParentMax=0;resizeLast=0;collapsible=1;marginBottom=0;hachureGap=4;pointerEvents=0;sketch=0;fontColor=#5AA9E6;strokeColor=#FF6392;fillColor=#FFE45E;" parent="1" vertex="1"><mxGeometry x="1320" y="230" width="160" height="180" as="geometry"/></mxCell><mxCell id="8I9pphBKhg92I5GMk5e_-105" value="+x: int&#10;+y: int" style="text;strokeColor=none;fillColor=none;align=left;verticalAlign=top;spacingLeft=4;spacingRight=4;overflow=hidden;rotatable=0;points=[[0,0.5],[1,0.5]];portConstraint=eastwest;" parent="8I9pphBKhg92I5GMk5e_-104" vertex="1"><mxGeometry y="26" width="160" height="54" as="geometry"/></mxCell><mxCell id="8I9pphBKhg92I5GMk5e_-106" value="" style="line;strokeWidth=1;fillColor=none;align=left;verticalAlign=middle;spacingTop=-1;spacingLeft=3;spacingRight=3;rotatable=0;labelPosition=right;points=[];portConstraint=eastwest;" parent="8I9pphBKhg92I5GMk5e_-104" vertex="1"><mxGeometry y="80" width="160" height="8" as="geometry"/></mxCell><mxCell id="8I9pphBKhg92I5GMk5e_-107" value="+toString(): String&#10;+equals(): boolean&#10;+moveEntity()&#10;+getOccupancyCell(): Entity                  &#10;+setOccupancyCell()                         " style="text;strokeColor=none;fillColor=none;align=left;verticalAlign=top;spacingLeft=4;spacingRight=4;overflow=hidden;rotatable=0;points=[[0,0.5],[1,0.5]];portConstraint=eastwest;" parent="8I9pphBKhg92I5GMk5e_-104" vertex="1"><mxGeometry y="88" width="160" height="92" as="geometry"/></mxCell><mxCell id="2" style="edgeStyle=orthogonalEdgeStyle;rounded=0;orthogonalLoop=1;jettySize=auto;html=1;exitX=1;exitY=0.5;exitDx=0;exitDy=0;" parent="1" source="8I9pphBKhg92I5GMk5e_-88" edge="1"><mxGeometry relative="1" as="geometry"><mxPoint x="1280" y="524" as="targetPoint"/></mxGeometry></mxCell><mxCell id="8I9pphBKhg92I5GMk5e_-88" value="+createHouse(): Entity                  &#10;+createObstacle(): Entity                &#10;+createTree(): Entity                &#10;+createStump(): Entity                    &#10;+createSapling(): Entity                         &#10;+createFairy(): Entity                     &#10;+createDudeNotFull(): Entity                       &#10;+createDudeFull(): Entity&#10;+executeSaplingActivity()                &#10;+executeTreeActivity()             &#10;+executeFairyActivity()                           &#10;+executeDudeNotFullActivity()                    &#10;+executeDudeFullActivity() &#10; +transformNotFull(): boolean                 &lt;&lt;static&gt;    &#10;+transformFull(): boolean                 &lt;&lt;static&gt;&gt;&#10;+transformPlant(): boolean                       &lt;&lt;static&gt;&gt;&#10;+transformTree(): boolean                    &lt;&lt;static&gt;&gt;&#10;+transformSapling(): boolean                    &lt;&lt;static&gt;&gt;    " style="text;strokeColor=none;fillColor=none;align=left;verticalAlign=top;spacingLeft=4;spacingRight=4;overflow=hidden;rotatable=0;points=[[0,0.5],[1,0.5]];portConstraint=eastwest;" parent="1" vertex="1"><mxGeometry x="1120" y="328" width="360" height="392" as="geometry"/></mxCell><mxCell id="12" value="" style="edgeStyle=orthogonalEdgeStyle;rounded=0;orthogonalLoop=1;jettySize=auto;html=1;" parent="1" source="3" edge="1"><mxGeometry relative="1" as="geometry"><mxPoint x="120" y="1070" as="targetPoint"/></mxGeometry></mxCell><mxCell id="13" value="" style="edgeStyle=orthogonalEdgeStyle;rounded=0;orthogonalLoop=1;jettySize=auto;html=1;" parent="1" source="3" edge="1"><mxGeometry relative="1" as="geometry"><mxPoint x="440" y="1070" as="targetPoint"/></mxGeometry></mxCell><mxCell id="3" value="&lt;&lt;Interface&gt;&gt; Action" style="swimlane;fontStyle=1;align=center;verticalAlign=top;childLayout=stackLayout;horizontal=1;startSize=26;horizontalStack=0;resizeParent=1;resizeParentMax=0;resizeLast=0;collapsible=1;marginBottom=0;hachureGap=4;pointerEvents=0;sketch=0;fontColor=#5AA9E6;strokeColor=#FF6392;fillColor=#FFE45E;" parent="1" vertex="1"><mxGeometry x="150" y="930" width="250" height="56" as="geometry"/></mxCell><mxCell id="24" value="+executeAction()&lt;br&gt;" style="text;html=1;align=center;verticalAlign=middle;resizable=0;points=[];autosize=1;strokeColor=none;fillColor=none;" parent="3" vertex="1"><mxGeometry y="26" width="250" height="30" as="geometry"/></mxCell><mxCell id="14" value="Activity" style="swimlane;fontStyle=1;align=center;verticalAlign=top;childLayout=stackLayout;horizontal=1;startSize=26;horizontalStack=0;resizeParent=1;resizeParentMax=0;resizeLast=0;collapsible=1;marginBottom=0;hachureGap=4;pointerEvents=0;sketch=0;fontColor=#5AA9E6;strokeColor=#FF6392;fillColor=#FFE45E;" parent="1" vertex="1"><mxGeometry x="40" y="1072" width="250" height="116" as="geometry"/></mxCell><mxCell id="25" value="&lt;font style=&quot;font-size: 11px;&quot;&gt;&lt;span style=&quot;font-family: &amp;quot;Helvetica Neue&amp;quot;; text-align: start;&quot;&gt;&lt;br&gt;&lt;/span&gt;&lt;span style=&quot;text-align: left;&quot;&gt;-entity: Entity&lt;/span&gt;&lt;br style=&quot;padding: 0px; margin: 0px; text-align: left;&quot;&gt;&lt;span style=&quot;text-align: left;&quot;&gt;-world: WorldModel&lt;/span&gt;&lt;br style=&quot;padding: 0px; margin: 0px; text-align: left;&quot;&gt;&lt;span style=&quot;text-align: left;&quot;&gt;-imageStore: ImageStore&lt;br&gt;&lt;/span&gt;&lt;/font&gt;&lt;span style=&quot;font-family: &amp;quot;Helvetica Neue&amp;quot;; font-size: 11px; text-align: start;&quot;&gt;+executeAction()&lt;/span&gt;&lt;span style=&quot;font-family: &amp;quot;Helvetica Neue&amp;quot;; font-size: 13px; text-align: start;&quot;&gt;&lt;br&gt;&lt;/span&gt;" style="text;html=1;align=center;verticalAlign=middle;resizable=0;points=[];autosize=1;strokeColor=none;fillColor=none;" parent="14" vertex="1"><mxGeometry y="26" width="250" height="90" as="geometry"/></mxCell><mxCell id="15" value="Animation" style="swimlane;fontStyle=1;align=center;verticalAlign=top;childLayout=stackLayout;horizontal=1;startSize=26;horizontalStack=0;resizeParent=1;resizeParentMax=0;resizeLast=0;collapsible=1;marginBottom=0;hachureGap=4;pointerEvents=0;sketch=0;fontColor=#5AA9E6;strokeColor=#FF6392;fillColor=#FFE45E;" parent="1" vertex="1"><mxGeometry x="310" y="1070" width="250" height="120" as="geometry"/></mxCell><mxCell id="21" value="&lt;font style=&quot;font-size: 11px;&quot;&gt;&lt;span style=&quot;font-family: &amp;quot;Helvetica Neue&amp;quot;; text-align: start;&quot;&gt;&lt;br&gt;&lt;/span&gt;&lt;span style=&quot;text-align: left;&quot;&gt;+entity: Entity&lt;/span&gt;&lt;br style=&quot;padding: 0px; margin: 0px; text-align: left;&quot;&gt;&lt;/font&gt;&lt;span style=&quot;font-family: &amp;quot;Helvetica Neue&amp;quot;; font-size: 13px; text-align: start;&quot;&gt;+repeatCount: int&lt;br&gt;&lt;/span&gt;&lt;span style=&quot;font-family: &amp;quot;Helvetica Neue&amp;quot;; font-size: 11px; text-align: start;&quot;&gt;+executeAction()&lt;br&gt;&lt;/span&gt;&lt;span style=&quot;text-align: left;&quot;&gt;+nextImage()&amp;nbsp;&lt;/span&gt;&lt;span style=&quot;font-family: &amp;quot;Helvetica Neue&amp;quot;; font-size: 13px; text-align: start;&quot;&gt;&lt;br&gt;&lt;/span&gt;" style="text;html=1;strokeColor=none;fillColor=none;align=center;verticalAlign=middle;whiteSpace=wrap;rounded=0;" parent="15" vertex="1"><mxGeometry y="26" width="250" height="94" as="geometry"/></mxCell><mxCell id="62" style="edgeStyle=orthogonalEdgeStyle;rounded=0;orthogonalLoop=1;jettySize=auto;html=1;entryX=0.613;entryY=-0.071;entryDx=0;entryDy=0;entryPerimeter=0;fontSize=11;fontColor=#000000;" parent="1" source="42" target="54" edge="1"><mxGeometry relative="1" as="geometry"/></mxCell><mxCell id="42" value="&lt;&lt;Interface&gt;&gt; Entity" style="swimlane;fontStyle=1;align=center;verticalAlign=top;childLayout=stackLayout;horizontal=1;startSize=26;horizontalStack=0;resizeParent=1;resizeParentMax=0;resizeLast=0;collapsible=1;marginBottom=0;hachureGap=4;pointerEvents=0;sketch=0;fontColor=#5AA9E6;strokeColor=#FF6392;fillColor=#FFE45E;" parent="1" vertex="1"><mxGeometry x="240" y="1300" width="250" height="156" as="geometry"/></mxCell><mxCell id="43" value="+String log()&lt;br&gt;+addEntity()&lt;br&gt;+getPosition()&lt;br&gt;+setPosition()&lt;br&gt;+getID()&lt;br&gt;+setImageIndex()&lt;br&gt;+getImageIndex()&lt;br&gt;+List getImages()" style="text;html=1;align=center;verticalAlign=middle;resizable=0;points=[];autosize=1;strokeColor=none;fillColor=none;" parent="42" vertex="1"><mxGeometry y="26" width="250" height="130" as="geometry"/></mxCell><mxCell id="44" value="&lt;&lt;Interface&gt;&gt; animatedEntity" style="swimlane;fontStyle=1;align=center;verticalAlign=top;childLayout=stackLayout;horizontal=1;startSize=26;horizontalStack=0;resizeParent=1;resizeParentMax=0;resizeLast=0;collapsible=1;marginBottom=0;hachureGap=4;pointerEvents=0;sketch=0;fontColor=#5AA9E6;strokeColor=#FF6392;fillColor=#FFE45E;" parent="1" vertex="1"><mxGeometry x="40" y="1550" width="250" height="56" as="geometry"/></mxCell><mxCell id="51" value="+scheduleActions()&lt;br&gt;+getAnimationPeriod()" style="text;html=1;strokeColor=none;fillColor=none;align=center;verticalAlign=middle;whiteSpace=wrap;rounded=0;fontSize=11;fontColor=#000000;" parent="44" vertex="1"><mxGeometry y="26" width="250" height="30" as="geometry"/></mxCell><mxCell id="49" style="edgeStyle=orthogonalEdgeStyle;rounded=0;orthogonalLoop=1;jettySize=auto;html=1;fontSize=11;fontColor=#000000;" parent="1" source="43" edge="1"><mxGeometry relative="1" as="geometry"><mxPoint x="164.99999999999977" y="1550" as="targetPoint"/></mxGeometry></mxCell><mxCell id="54" value="House" style="swimlane;fontStyle=1;align=center;verticalAlign=top;childLayout=stackLayout;horizontal=1;startSize=26;horizontalStack=0;resizeParent=1;resizeParentMax=0;resizeLast=0;collapsible=1;marginBottom=0;hachureGap=4;pointerEvents=0;sketch=0;fontColor=#5AA9E6;strokeColor=#FF6392;fillColor=#FFE45E;" parent="1" vertex="1"><mxGeometry x="360" y="1580" width="250" height="210" as="geometry"/></mxCell><mxCell id="56" value="Stump" style="swimlane;fontStyle=1;align=center;verticalAlign=top;childLayout=stackLayout;horizontal=1;startSize=26;horizontalStack=0;resizeParent=1;resizeParentMax=0;resizeLast=0;collapsible=1;marginBottom=0;hachureGap=4;pointerEvents=0;sketch=0;fontColor=#5AA9E6;strokeColor=#FF6392;fillColor=#FFE45E;" parent="1" vertex="1"><mxGeometry x="610" y="1580" width="250" height="210" as="geometry"/></mxCell><mxCell id="66" value="&lt;span style=&quot;font-size: 12px;&quot;&gt;&lt;br&gt;&lt;/span&gt;&lt;span style=&quot;font-size: 12px; text-align: left;&quot;&gt;+id: String&lt;/span&gt;&lt;br style=&quot;padding: 0px; margin: 0px; font-size: 12px; text-align: left;&quot;&gt;&lt;span style=&quot;font-size: 12px; text-align: left;&quot;&gt;+position: Point&lt;/span&gt;&lt;br style=&quot;padding: 0px; margin: 0px; font-size: 12px; text-align: left;&quot;&gt;&lt;span style=&quot;font-size: 12px; text-align: left;&quot;&gt;+images: List&amp;lt;PImage&amp;gt;&lt;/span&gt;&lt;br style=&quot;padding: 0px; margin: 0px; font-size: 12px; text-align: left;&quot;&gt;&lt;span style=&quot;font-size: 12px; text-align: left;&quot;&gt;+imageIndex: int&lt;/span&gt;&lt;span style=&quot;font-size: 12px;&quot;&gt;&lt;br&gt;+String log()&lt;/span&gt;&lt;br style=&quot;font-size: 12px;&quot;&gt;&lt;span style=&quot;font-size: 12px;&quot;&gt;+addEntity()&lt;/span&gt;&lt;br style=&quot;font-size: 12px;&quot;&gt;&lt;span style=&quot;font-size: 12px;&quot;&gt;+getPosition()&lt;/span&gt;&lt;br style=&quot;font-size: 12px;&quot;&gt;&lt;span style=&quot;font-size: 12px;&quot;&gt;+setPosition()&lt;/span&gt;&lt;br style=&quot;font-size: 12px;&quot;&gt;&lt;span style=&quot;font-size: 12px;&quot;&gt;+getID()&lt;/span&gt;&lt;br style=&quot;font-size: 12px;&quot;&gt;&lt;span style=&quot;font-size: 12px;&quot;&gt;+setImageIndex()&lt;/span&gt;&lt;br style=&quot;font-size: 12px;&quot;&gt;&lt;span style=&quot;font-size: 12px;&quot;&gt;+getImageIndex()&lt;/span&gt;&lt;br style=&quot;font-size: 12px;&quot;&gt;&lt;span style=&quot;font-size: 12px;&quot;&gt;+List getImages()&lt;/span&gt;" style="text;html=1;strokeColor=none;fillColor=none;align=center;verticalAlign=middle;whiteSpace=wrap;rounded=0;fontSize=11;fontColor=#000000;" parent="56" vertex="1"><mxGeometry y="26" width="250" height="184" as="geometry"/></mxCell><mxCell id="59" style="edgeStyle=orthogonalEdgeStyle;rounded=0;orthogonalLoop=1;jettySize=auto;html=1;entryX=0.5;entryY=0;entryDx=0;entryDy=0;fontSize=11;fontColor=#000000;" parent="1" source="43" target="56" edge="1"><mxGeometry relative="1" as="geometry"/></mxCell><mxCell id="55" value="&lt;span style=&quot;font-size: 12px;&quot;&gt;&lt;br&gt;&lt;/span&gt;&lt;span style=&quot;font-size: 12px; text-align: left;&quot;&gt;+id: String&lt;/span&gt;&lt;br style=&quot;padding: 0px; margin: 0px; font-size: 12px; text-align: left;&quot;&gt;&lt;span style=&quot;font-size: 12px; text-align: left;&quot;&gt;+position: Point&lt;/span&gt;&lt;br style=&quot;padding: 0px; margin: 0px; font-size: 12px; text-align: left;&quot;&gt;&lt;span style=&quot;font-size: 12px; text-align: left;&quot;&gt;+images: List&amp;lt;PImage&amp;gt;&lt;/span&gt;&lt;br style=&quot;padding: 0px; margin: 0px; font-size: 12px; text-align: left;&quot;&gt;&lt;span style=&quot;font-size: 12px; text-align: left;&quot;&gt;+imageIndex: int&lt;/span&gt;&lt;span style=&quot;font-size: 12px;&quot;&gt;&lt;br&gt;+String log()&lt;/span&gt;&lt;br style=&quot;font-size: 12px;&quot;&gt;&lt;span style=&quot;font-size: 12px;&quot;&gt;+addEntity()&lt;/span&gt;&lt;br style=&quot;font-size: 12px;&quot;&gt;&lt;span style=&quot;font-size: 12px;&quot;&gt;+getPosition()&lt;/span&gt;&lt;br style=&quot;font-size: 12px;&quot;&gt;&lt;span style=&quot;font-size: 12px;&quot;&gt;+setPosition()&lt;/span&gt;&lt;br style=&quot;font-size: 12px;&quot;&gt;&lt;span style=&quot;font-size: 12px;&quot;&gt;+getID()&lt;/span&gt;&lt;br style=&quot;font-size: 12px;&quot;&gt;&lt;span style=&quot;font-size: 12px;&quot;&gt;+setImageIndex()&lt;/span&gt;&lt;br style=&quot;font-size: 12px;&quot;&gt;&lt;span style=&quot;font-size: 12px;&quot;&gt;+getImageIndex()&lt;/span&gt;&lt;br style=&quot;font-size: 12px;&quot;&gt;&lt;span style=&quot;font-size: 12px;&quot;&gt;+List getImages()&lt;/span&gt;" style="text;html=1;strokeColor=none;fillColor=none;align=center;verticalAlign=middle;whiteSpace=wrap;rounded=0;fontSize=11;fontColor=#000000;" parent="1" vertex="1"><mxGeometry x="360" y="1680" width="250" height="30" as="geometry"/></mxCell><mxCell id="68" style="edgeStyle=orthogonalEdgeStyle;rounded=0;orthogonalLoop=1;jettySize=auto;html=1;fontSize=11;fontColor=#000000;" parent="1" source="51" edge="1"><mxGeometry relative="1" as="geometry"><mxPoint x="69.99999999999977" y="1685" as="targetPoint"/></mxGeometry></mxCell><mxCell id="69" value="Obstacle" style="swimlane;fontStyle=1;align=center;verticalAlign=top;childLayout=stackLayout;horizontal=1;startSize=26;horizontalStack=0;resizeParent=1;resizeParentMax=0;resizeLast=0;collapsible=1;marginBottom=0;hachureGap=4;pointerEvents=0;sketch=0;fontColor=#5AA9E6;strokeColor=#FF6392;fillColor=#FFE45E;" parent="1" vertex="1"><mxGeometry x="-10" y="1690" width="250" height="312" as="geometry"/></mxCell><mxCell id="71" value="&lt;span style=&quot;font-size: 12px; text-align: left;&quot;&gt;+id: String&lt;/span&gt;&lt;br style=&quot;padding: 0px; margin: 0px; font-size: 12px; text-align: left;&quot;&gt;&lt;span style=&quot;font-size: 12px; text-align: left;&quot;&gt;+position: Point&lt;/span&gt;&lt;br style=&quot;padding: 0px; margin: 0px; font-size: 12px; text-align: left;&quot;&gt;&lt;span style=&quot;font-size: 12px; text-align: left;&quot;&gt;+images: List&amp;lt;PImage&amp;gt;&lt;/span&gt;&lt;br style=&quot;padding: 0px; margin: 0px; font-size: 12px; text-align: left;&quot;&gt;&lt;span style=&quot;font-size: 12px; text-align: left;&quot;&gt;+imageIndex: int&lt;/span&gt;&lt;br style=&quot;padding: 0px; margin: 0px; font-size: 12px; text-align: left;&quot;&gt;&lt;span style=&quot;font-size: 12px; text-align: left;&quot;&gt;+animationPeriod: int&lt;/span&gt;&lt;span style=&quot;font-size: 12px;&quot;&gt;&lt;br&gt;+String log()&lt;/span&gt;&lt;br style=&quot;font-size: 12px;&quot;&gt;&lt;span style=&quot;font-size: 12px;&quot;&gt;+addEntity()&lt;/span&gt;&lt;br style=&quot;font-size: 12px;&quot;&gt;&lt;span style=&quot;font-size: 12px;&quot;&gt;+getPosition()&lt;/span&gt;&lt;br style=&quot;font-size: 12px;&quot;&gt;&lt;span style=&quot;font-size: 12px;&quot;&gt;+setPosition()&lt;/span&gt;&lt;br style=&quot;font-size: 12px;&quot;&gt;&lt;span style=&quot;font-size: 12px;&quot;&gt;+getID()&lt;/span&gt;&lt;br style=&quot;font-size: 12px;&quot;&gt;&lt;span style=&quot;font-size: 12px;&quot;&gt;+setImageIndex()&lt;/span&gt;&lt;br style=&quot;font-size: 12px;&quot;&gt;&lt;span style=&quot;font-size: 12px;&quot;&gt;+getImageIndex()&lt;/span&gt;&lt;br style=&quot;font-size: 12px;&quot;&gt;&lt;span style=&quot;font-size: 12px;&quot;&gt;+List getImages()&lt;br&gt;&lt;/span&gt;&lt;span style=&quot;&quot;&gt;+scheduleActions()&lt;/span&gt;&lt;br style=&quot;&quot;&gt;&lt;span style=&quot;&quot;&gt;+getAnimationPeriod()&lt;/span&gt;&lt;span style=&quot;font-size: 12px;&quot;&gt;&lt;br&gt;&lt;/span&gt;" style="text;html=1;align=center;verticalAlign=middle;resizable=0;points=[];autosize=1;strokeColor=none;fillColor=none;fontSize=11;fontColor=#000000;" parent="69" vertex="1"><mxGeometry y="26" width="250" height="230" as="geometry"/></mxCell><mxCell id="93" value="&lt;&lt;Interface&gt;&gt; active" style="swimlane;fontStyle=1;align=center;verticalAlign=top;childLayout=stackLayout;horizontal=1;startSize=26;horizontalStack=0;resizeParent=1;resizeParentMax=0;resizeLast=0;collapsible=1;marginBottom=0;hachureGap=4;pointerEvents=0;sketch=0;fontColor=#5AA9E6;strokeColor=#FF6392;fillColor=#FFE45E;" vertex="1" parent="69"><mxGeometry y="256" width="250" height="56" as="geometry"/></mxCell><mxCell id="94" value="+executeActivity()" style="text;html=1;strokeColor=none;fillColor=none;align=center;verticalAlign=middle;whiteSpace=wrap;rounded=0;fontSize=11;fontColor=#000000;" vertex="1" parent="93"><mxGeometry y="26" width="250" height="30" as="geometry"/></mxCell><mxCell id="77" style="edgeStyle=orthogonalEdgeStyle;rounded=0;orthogonalLoop=1;jettySize=auto;html=1;" edge="1" parent="1" source="51" target="93"><mxGeometry relative="1" as="geometry"><mxPoint x="210" y="1920" as="targetPoint"/><Array as="points"><mxPoint x="280" y="1777"/><mxPoint x="310" y="1777"/><mxPoint x="310" y="1958"/></Array></mxGeometry></mxCell><mxCell id="79" style="edgeStyle=orthogonalEdgeStyle;rounded=0;orthogonalLoop=1;jettySize=auto;html=1;entryX=0;entryY=0.25;entryDx=0;entryDy=0;" edge="1" parent="1" source="51" target="94"><mxGeometry relative="1" as="geometry"><mxPoint x="60" y="1920" as="targetPoint"/><Array as="points"><mxPoint x="-80" y="1591"/><mxPoint x="-80" y="1963"/></Array></mxGeometry></mxCell><mxCell id="80" value="&lt;&lt;Interface&gt;&gt; Plant" style="swimlane;fontStyle=1;align=center;verticalAlign=top;childLayout=stackLayout;horizontal=1;startSize=26;horizontalStack=0;resizeParent=1;resizeParentMax=0;resizeLast=0;collapsible=1;marginBottom=0;hachureGap=4;pointerEvents=0;sketch=0;fontColor=#5AA9E6;strokeColor=#FF6392;fillColor=#FFE45E;" vertex="1" parent="1"><mxGeometry x="-200" y="2000" width="250" height="56" as="geometry"/></mxCell><mxCell id="81" value="+transformPlant" style="text;html=1;strokeColor=none;fillColor=none;align=center;verticalAlign=middle;whiteSpace=wrap;rounded=0;fontSize=11;fontColor=#000000;" vertex="1" parent="80"><mxGeometry y="26" width="250" height="30" as="geometry"/></mxCell><mxCell id="82" value="&lt;&lt;Interface&gt;&gt; Dude" style="swimlane;fontStyle=1;align=center;verticalAlign=top;childLayout=stackLayout;horizontal=1;startSize=26;horizontalStack=0;resizeParent=1;resizeParentMax=0;resizeLast=0;collapsible=1;marginBottom=0;hachureGap=4;pointerEvents=0;sketch=0;fontColor=#5AA9E6;strokeColor=#FF6392;fillColor=#FFE45E;" vertex="1" parent="1"><mxGeometry x="175" y="2000" width="250" height="56" as="geometry"/></mxCell><mxCell id="83" value="+nextPositionDude()" style="text;html=1;strokeColor=none;fillColor=none;align=center;verticalAlign=middle;whiteSpace=wrap;rounded=0;fontSize=11;fontColor=#000000;" vertex="1" parent="82"><mxGeometry y="26" width="250" height="30" as="geometry"/></mxCell><mxCell id="85" style="edgeStyle=orthogonalEdgeStyle;rounded=0;orthogonalLoop=1;jettySize=auto;html=1;" edge="1" parent="1" source="81"><mxGeometry relative="1" as="geometry"><mxPoint x="-160.00000000000023" y="2125" as="targetPoint"/></mxGeometry></mxCell><mxCell id="87" style="edgeStyle=orthogonalEdgeStyle;rounded=0;orthogonalLoop=1;jettySize=auto;html=1;" edge="1" parent="1" source="81"><mxGeometry relative="1" as="geometry"><mxPoint y="2120" as="targetPoint"/><Array as="points"><mxPoint x="-75" y="2090"/><mxPoint y="2090"/><mxPoint y="2130"/></Array></mxGeometry></mxCell><mxCell id="88" value="Sapling" style="swimlane;fontStyle=1;align=center;verticalAlign=top;childLayout=stackLayout;horizontal=1;startSize=26;horizontalStack=0;resizeParent=1;resizeParentMax=0;resizeLast=0;collapsible=1;marginBottom=0;hachureGap=4;pointerEvents=0;sketch=0;fontColor=#5AA9E6;strokeColor=#FF6392;fillColor=#FFE45E;" vertex="1" parent="1"><mxGeometry x="-360" y="2130" width="250" height="430" as="geometry"/></mxCell><mxCell id="89" value="&lt;br style=&quot;padding: 0px; margin: 0px; font-size: 12px; text-align: left;&quot;&gt;&lt;span style=&quot;font-size: 12px; text-align: left;&quot;&gt;+id: String&lt;/span&gt;&lt;br style=&quot;padding: 0px; margin: 0px; font-size: 12px; text-align: left;&quot;&gt;&lt;span style=&quot;font-size: 12px; text-align: left;&quot;&gt;+position: Point&lt;/span&gt;&lt;br style=&quot;padding: 0px; margin: 0px; font-size: 12px; text-align: left;&quot;&gt;&lt;span style=&quot;font-size: 12px; text-align: left;&quot;&gt;+images: List&amp;lt;PImage&amp;gt;&lt;/span&gt;&lt;br style=&quot;padding: 0px; margin: 0px; font-size: 12px; text-align: left;&quot;&gt;&lt;span style=&quot;font-size: 12px; text-align: left;&quot;&gt;+imageIndex: int&lt;/span&gt;&lt;br style=&quot;padding: 0px; margin: 0px; font-size: 12px; text-align: left;&quot;&gt;&lt;span style=&quot;font-size: 12px; text-align: left;&quot;&gt;+actionPeriod: int&lt;/span&gt;&lt;br style=&quot;padding: 0px; margin: 0px; font-size: 12px; text-align: left;&quot;&gt;&lt;span style=&quot;font-size: 12px; text-align: left;&quot;&gt;+animationPeriod: int&lt;/span&gt;&lt;br style=&quot;padding: 0px; margin: 0px; font-size: 12px; text-align: left;&quot;&gt;&lt;span style=&quot;font-size: 12px; text-align: left;&quot;&gt;+health: int&lt;/span&gt;&lt;br style=&quot;padding: 0px; margin: 0px; font-size: 12px; text-align: left;&quot;&gt;&lt;span style=&quot;font-size: 12px; text-align: left;&quot;&gt;+healthLimit: int&lt;/span&gt;&lt;span style=&quot;font-size: 12px;&quot;&gt;&lt;br&gt;+String log()&lt;/span&gt;&lt;br style=&quot;font-size: 12px;&quot;&gt;&lt;span style=&quot;font-size: 12px;&quot;&gt;+addEntity()&lt;/span&gt;&lt;br style=&quot;font-size: 12px;&quot;&gt;&lt;span style=&quot;font-size: 12px;&quot;&gt;+getPosition()&lt;/span&gt;&lt;br style=&quot;font-size: 12px;&quot;&gt;&lt;span style=&quot;font-size: 12px;&quot;&gt;+setPosition()&lt;/span&gt;&lt;br style=&quot;font-size: 12px;&quot;&gt;&lt;span style=&quot;font-size: 12px;&quot;&gt;+getID()&lt;/span&gt;&lt;br style=&quot;font-size: 12px;&quot;&gt;&lt;span style=&quot;font-size: 12px;&quot;&gt;+setImageIndex()&lt;/span&gt;&lt;br style=&quot;font-size: 12px;&quot;&gt;&lt;span style=&quot;font-size: 12px;&quot;&gt;+getImageIndex()&lt;/span&gt;&lt;br style=&quot;font-size: 12px;&quot;&gt;&lt;span style=&quot;font-size: 12px;&quot;&gt;+List getImages()&lt;br&gt;&lt;/span&gt;+scheduleActions()&lt;br&gt;+getAnimationPeriod()&lt;br&gt;+executeActivity()&lt;br&gt;&lt;span style=&quot;font-size: 12px;&quot;&gt;+transformPlant&lt;br&gt;+transformSapling&lt;br&gt;&lt;/span&gt;" style="text;html=1;strokeColor=none;fillColor=none;align=center;verticalAlign=middle;whiteSpace=wrap;rounded=0;fontSize=11;fontColor=#000000;" vertex="1" parent="88"><mxGeometry y="26" width="250" height="404" as="geometry"/></mxCell><mxCell id="90" value="Tree" style="swimlane;fontStyle=1;align=center;verticalAlign=top;childLayout=stackLayout;horizontal=1;startSize=26;horizontalStack=0;resizeParent=1;resizeParentMax=0;resizeLast=0;collapsible=1;marginBottom=0;hachureGap=4;pointerEvents=0;sketch=0;fontColor=#5AA9E6;strokeColor=#FF6392;fillColor=#FFE45E;" vertex="1" parent="1"><mxGeometry x="-60" y="2130" width="250" height="366" as="geometry"/></mxCell><mxCell id="92" value="&lt;br&gt;&lt;br&gt;&lt;span style=&quot;text-align: left;&quot;&gt;+id: String&lt;/span&gt;&lt;br style=&quot;padding: 0px; margin: 0px; text-align: left;&quot;&gt;&lt;span style=&quot;text-align: left;&quot;&gt;+position: Point&lt;/span&gt;&lt;br style=&quot;padding: 0px; margin: 0px; text-align: left;&quot;&gt;&lt;span style=&quot;text-align: left;&quot;&gt;+images: List&amp;lt;PImage&amp;gt;&lt;/span&gt;&lt;br style=&quot;padding: 0px; margin: 0px; text-align: left;&quot;&gt;&lt;span style=&quot;text-align: left;&quot;&gt;+imageIndex: int&lt;/span&gt;&lt;br style=&quot;padding: 0px; margin: 0px; text-align: left;&quot;&gt;&lt;span style=&quot;text-align: left;&quot;&gt;+actionPeriod: int&lt;/span&gt;&lt;br style=&quot;padding: 0px; margin: 0px; text-align: left;&quot;&gt;&lt;span style=&quot;text-align: left;&quot;&gt;+animationPeriod: int&lt;/span&gt;&lt;br style=&quot;padding: 0px; margin: 0px; text-align: left;&quot;&gt;&lt;span style=&quot;text-align: left;&quot;&gt;+health: int&lt;/span&gt;&lt;br&gt;+String log()&lt;br&gt;+addEntity()&lt;br&gt;+getPosition()&lt;br&gt;+setPosition()&lt;br&gt;+getID()&lt;br&gt;+setImageIndex()&lt;br&gt;+getImageIndex()&lt;br&gt;+List getImages()&lt;br&gt;&lt;span style=&quot;font-size: 11px;&quot;&gt;+scheduleActions()&lt;/span&gt;&lt;br style=&quot;font-size: 11px;&quot;&gt;&lt;span style=&quot;font-size: 11px;&quot;&gt;+getAnimationPeriod()&lt;br&gt;&lt;/span&gt;&lt;span style=&quot;font-size: 11px;&quot;&gt;+executeActivity()&lt;br&gt;&lt;/span&gt;&lt;span style=&quot;&quot;&gt;+transformPlant&lt;/span&gt;&lt;br style=&quot;&quot;&gt;&lt;span style=&quot;&quot;&gt;+transformTree&lt;br&gt;&lt;/span&gt;&lt;span style=&quot;font-size: 11px;&quot;&gt;&lt;br&gt;&lt;/span&gt;" style="text;html=1;align=center;verticalAlign=middle;resizable=0;points=[];autosize=1;strokeColor=none;fillColor=none;" vertex="1" parent="90"><mxGeometry y="26" width="250" height="340" as="geometry"/></mxCell><mxCell id="96" style="edgeStyle=orthogonalEdgeStyle;rounded=0;orthogonalLoop=1;jettySize=auto;html=1;entryX=0.565;entryY=0.012;entryDx=0;entryDy=0;entryPerimeter=0;" edge="1" parent="1" source="94" target="82"><mxGeometry relative="1" as="geometry"><mxPoint x="320.0666666666666" y="1975" as="targetPoint"/></mxGeometry></mxCell><mxCell id="97" style="edgeStyle=orthogonalEdgeStyle;rounded=0;orthogonalLoop=1;jettySize=auto;html=1;entryX=0.5;entryY=0;entryDx=0;entryDy=0;" edge="1" parent="1" source="94" target="80"><mxGeometry relative="1" as="geometry"/></mxCell><mxCell id="99" style="edgeStyle=orthogonalEdgeStyle;rounded=0;orthogonalLoop=1;jettySize=auto;html=1;entryX=0;entryY=0.25;entryDx=0;entryDy=0;" edge="1" parent="1" source="94" target="100"><mxGeometry relative="1" as="geometry"><mxPoint x="435" y="1971" as="targetPoint"/></mxGeometry></mxCell><mxCell id="100" value="Fairy&#10;" style="swimlane;fontStyle=1;align=center;verticalAlign=top;childLayout=stackLayout;horizontal=1;startSize=26;horizontalStack=0;resizeParent=1;resizeParentMax=0;resizeLast=0;collapsible=1;marginBottom=0;hachureGap=4;pointerEvents=0;sketch=0;fontColor=#5AA9E6;strokeColor=#FF6392;fillColor=#FFE45E;" vertex="1" parent="1"><mxGeometry x="470" y="1908" width="250" height="340" as="geometry"/></mxCell><mxCell id="101" value="&lt;span style=&quot;font-size: 12px; text-align: left;&quot;&gt;+id: String&lt;/span&gt;&lt;br style=&quot;padding: 0px; margin: 0px; font-size: 12px; text-align: left;&quot;&gt;&lt;span style=&quot;font-size: 12px; text-align: left;&quot;&gt;+position: Point&lt;/span&gt;&lt;br style=&quot;padding: 0px; margin: 0px; font-size: 12px; text-align: left;&quot;&gt;&lt;span style=&quot;font-size: 12px; text-align: left;&quot;&gt;+images: List&amp;lt;PImage&amp;gt;&lt;/span&gt;&lt;br style=&quot;padding: 0px; margin: 0px; font-size: 12px; text-align: left;&quot;&gt;&lt;span style=&quot;font-size: 12px; text-align: left;&quot;&gt;+imageIndex: int&lt;/span&gt;&lt;br style=&quot;padding: 0px; margin: 0px; font-size: 12px; text-align: left;&quot;&gt;&lt;span style=&quot;font-size: 12px; text-align: left;&quot;&gt;+actionPeriod: int&lt;/span&gt;&lt;br style=&quot;padding: 0px; margin: 0px; font-size: 12px; text-align: left;&quot;&gt;&lt;span style=&quot;font-size: 12px; text-align: left;&quot;&gt;+animationPeriod: int&lt;/span&gt;&lt;br&gt;+executeActivity()&lt;br&gt;&lt;span style=&quot;font-size: 12px;&quot;&gt;+String log()&lt;/span&gt;&lt;br style=&quot;font-size: 12px;&quot;&gt;&lt;span style=&quot;font-size: 12px;&quot;&gt;+addEntity()&lt;/span&gt;&lt;br style=&quot;font-size: 12px;&quot;&gt;&lt;span style=&quot;font-size: 12px;&quot;&gt;+getPosition()&lt;/span&gt;&lt;br style=&quot;font-size: 12px;&quot;&gt;&lt;span style=&quot;font-size: 12px;&quot;&gt;+setPosition()&lt;/span&gt;&lt;br style=&quot;font-size: 12px;&quot;&gt;&lt;span style=&quot;font-size: 12px;&quot;&gt;+getID()&lt;/span&gt;&lt;br style=&quot;font-size: 12px;&quot;&gt;&lt;span style=&quot;font-size: 12px;&quot;&gt;+setImageIndex()&lt;/span&gt;&lt;br style=&quot;font-size: 12px;&quot;&gt;&lt;span style=&quot;font-size: 12px;&quot;&gt;+getImageIndex()&lt;/span&gt;&lt;br style=&quot;font-size: 12px;&quot;&gt;&lt;span style=&quot;font-size: 12px;&quot;&gt;+List getImages()&lt;br&gt;&lt;/span&gt;&lt;span style=&quot;&quot;&gt;+scheduleActions()&lt;/span&gt;&lt;br style=&quot;&quot;&gt;&lt;span style=&quot;&quot;&gt;+getAnimationPeriod()&lt;br&gt;+moveToFairy&lt;br&gt;+nextPositionFairy&lt;br&gt;&lt;br&gt;&lt;/span&gt;" style="text;html=1;strokeColor=none;fillColor=none;align=center;verticalAlign=middle;whiteSpace=wrap;rounded=0;fontSize=11;fontColor=#000000;" vertex="1" parent="100"><mxGeometry y="26" width="250" height="314" as="geometry"/></mxCell><mxCell id="104" style="edgeStyle=orthogonalEdgeStyle;rounded=0;orthogonalLoop=1;jettySize=auto;html=1;" edge="1" parent="1" source="83"><mxGeometry relative="1" as="geometry"><mxPoint x="279.93" y="2165" as="sourcePoint"/><mxPoint x="249.9966666666666" y="2540" as="targetPoint"/><Array as="points"><mxPoint x="280" y="2355"/><mxPoint x="250" y="2355"/></Array></mxGeometry></mxCell><mxCell id="106" style="edgeStyle=orthogonalEdgeStyle;rounded=0;orthogonalLoop=1;jettySize=auto;html=1;" edge="1" parent="1" source="83"><mxGeometry relative="1" as="geometry"><mxPoint x="470.0666666666666" y="2445" as="targetPoint"/></mxGeometry></mxCell><mxCell id="108" value="Dude_full" style="swimlane;fontStyle=1;align=center;verticalAlign=top;childLayout=stackLayout;horizontal=1;startSize=26;horizontalStack=0;resizeParent=1;resizeParentMax=0;resizeLast=0;collapsible=1;marginBottom=0;hachureGap=4;pointerEvents=0;sketch=0;fontColor=#5AA9E6;strokeColor=#FF6392;fillColor=#FFE45E;" vertex="1" parent="1"><mxGeometry x="60" y="2540" width="250" height="406" as="geometry"/></mxCell><mxCell id="109" value="&lt;br style=&quot;padding: 0px; margin: 0px; font-size: 12px; text-align: left;&quot;&gt;&lt;span style=&quot;font-size: 12px; text-align: left;&quot;&gt;+id: String&lt;/span&gt;&lt;br style=&quot;padding: 0px; margin: 0px; font-size: 12px; text-align: left;&quot;&gt;&lt;span style=&quot;font-size: 12px; text-align: left;&quot;&gt;+position: Point&lt;/span&gt;&lt;br style=&quot;padding: 0px; margin: 0px; font-size: 12px; text-align: left;&quot;&gt;&lt;span style=&quot;font-size: 12px; text-align: left;&quot;&gt;+images: List&amp;lt;PImage&amp;gt;&lt;/span&gt;&lt;br style=&quot;padding: 0px; margin: 0px; font-size: 12px; text-align: left;&quot;&gt;&lt;span style=&quot;font-size: 12px; text-align: left;&quot;&gt;+imageIndex: int&lt;/span&gt;&lt;br style=&quot;padding: 0px; margin: 0px; font-size: 12px; text-align: left;&quot;&gt;&lt;span style=&quot;font-size: 12px; text-align: left;&quot;&gt;+resourceLimit: int&lt;/span&gt;&lt;br style=&quot;padding: 0px; margin: 0px; font-size: 12px; text-align: left;&quot;&gt;&lt;span style=&quot;font-size: 12px; text-align: left;&quot;&gt;+actionPeriod: int&lt;/span&gt;&lt;br style=&quot;padding: 0px; margin: 0px; font-size: 12px; text-align: left;&quot;&gt;&lt;span style=&quot;font-size: 12px; text-align: left;&quot;&gt;+animationPeriod: int&lt;/span&gt;&lt;br&gt;+nextPositionDude()&lt;br&gt;&lt;span style=&quot;font-size: 12px;&quot;&gt;+String log()&lt;/span&gt;&lt;br style=&quot;font-size: 12px;&quot;&gt;&lt;span style=&quot;font-size: 12px;&quot;&gt;+addEntity()&lt;/span&gt;&lt;br style=&quot;font-size: 12px;&quot;&gt;&lt;span style=&quot;font-size: 12px;&quot;&gt;+getPosition()&lt;/span&gt;&lt;br style=&quot;font-size: 12px;&quot;&gt;&lt;span style=&quot;font-size: 12px;&quot;&gt;+setPosition()&lt;/span&gt;&lt;br style=&quot;font-size: 12px;&quot;&gt;&lt;span style=&quot;font-size: 12px;&quot;&gt;+getID()&lt;/span&gt;&lt;br style=&quot;font-size: 12px;&quot;&gt;&lt;span style=&quot;font-size: 12px;&quot;&gt;+setImageIndex()&lt;/span&gt;&lt;br style=&quot;font-size: 12px;&quot;&gt;&lt;span style=&quot;font-size: 12px;&quot;&gt;+getImageIndex()&lt;/span&gt;&lt;br style=&quot;font-size: 12px;&quot;&gt;&lt;span style=&quot;font-size: 12px;&quot;&gt;+List getImages()&lt;/span&gt;&lt;br style=&quot;font-size: 12px;&quot;&gt;&lt;span style=&quot;&quot;&gt;+scheduleActions()&lt;/span&gt;&lt;br style=&quot;&quot;&gt;&lt;span style=&quot;&quot;&gt;+getAnimationPeriod()&lt;br&gt;&lt;/span&gt;&lt;span style=&quot;&quot;&gt;+executeActivity()&lt;br&gt;+transformFull&lt;br&gt;+moveToFull&lt;br&gt;&lt;br&gt;&lt;/span&gt;" style="text;html=1;strokeColor=none;fillColor=none;align=center;verticalAlign=middle;whiteSpace=wrap;rounded=0;fontSize=11;fontColor=#000000;" vertex="1" parent="108"><mxGeometry y="26" width="250" height="380" as="geometry"/></mxCell><mxCell id="110" value="Dude_not_full&#10;" style="swimlane;fontStyle=1;align=center;verticalAlign=top;childLayout=stackLayout;horizontal=1;startSize=26;horizontalStack=0;resizeParent=1;resizeParentMax=0;resizeLast=0;collapsible=1;marginBottom=0;hachureGap=4;pointerEvents=0;sketch=0;fontColor=#5AA9E6;strokeColor=#FF6392;fillColor=#FFE45E;" vertex="1" parent="1"><mxGeometry x="425" y="2450" width="250" height="410" as="geometry"/></mxCell><mxCell id="111" value="&lt;br&gt;&lt;span style=&quot;font-size: 12px; text-align: left;&quot;&gt;+id: String&lt;/span&gt;&lt;br style=&quot;padding: 0px; margin: 0px; font-size: 12px; text-align: left;&quot;&gt;&lt;span style=&quot;font-size: 12px; text-align: left;&quot;&gt;+position: Point&lt;/span&gt;&lt;br style=&quot;padding: 0px; margin: 0px; font-size: 12px; text-align: left;&quot;&gt;&lt;span style=&quot;font-size: 12px; text-align: left;&quot;&gt;+images: List&amp;lt;PImage&amp;gt;&lt;/span&gt;&lt;br style=&quot;padding: 0px; margin: 0px; font-size: 12px; text-align: left;&quot;&gt;&lt;span style=&quot;font-size: 12px; text-align: left;&quot;&gt;+imageIndex: int&lt;/span&gt;&lt;br style=&quot;padding: 0px; margin: 0px; font-size: 12px; text-align: left;&quot;&gt;&lt;span style=&quot;font-size: 12px; text-align: left;&quot;&gt;+resourceLimit: int&lt;br&gt;&lt;/span&gt;+resourceCount:int&lt;br style=&quot;padding: 0px; margin: 0px; font-size: 12px; text-align: left;&quot;&gt;&lt;span style=&quot;font-size: 12px; text-align: left;&quot;&gt;+actionPeriod: int&lt;/span&gt;&lt;br style=&quot;padding: 0px; margin: 0px; font-size: 12px; text-align: left;&quot;&gt;&lt;span style=&quot;font-size: 12px; text-align: left;&quot;&gt;+animationPeriod: int&lt;/span&gt;&lt;br&gt;+nextPositionDude()&lt;br&gt;&lt;span style=&quot;font-size: 12px;&quot;&gt;+String log()&lt;/span&gt;&lt;br style=&quot;font-size: 12px;&quot;&gt;&lt;span style=&quot;font-size: 12px;&quot;&gt;+addEntity()&lt;/span&gt;&lt;br style=&quot;font-size: 12px;&quot;&gt;&lt;span style=&quot;font-size: 12px;&quot;&gt;+getPosition()&lt;/span&gt;&lt;br style=&quot;font-size: 12px;&quot;&gt;&lt;span style=&quot;font-size: 12px;&quot;&gt;+setPosition()&lt;/span&gt;&lt;br style=&quot;font-size: 12px;&quot;&gt;&lt;span style=&quot;font-size: 12px;&quot;&gt;+getID()&lt;/span&gt;&lt;br style=&quot;font-size: 12px;&quot;&gt;&lt;span style=&quot;font-size: 12px;&quot;&gt;+setImageIndex()&lt;/span&gt;&lt;br style=&quot;font-size: 12px;&quot;&gt;&lt;span style=&quot;font-size: 12px;&quot;&gt;+getImageIndex()&lt;/span&gt;&lt;br style=&quot;font-size: 12px;&quot;&gt;&lt;span style=&quot;font-size: 12px;&quot;&gt;+List getImages()&lt;/span&gt;&lt;br style=&quot;font-size: 12px;&quot;&gt;&lt;span style=&quot;&quot;&gt;+scheduleActions()&lt;/span&gt;&lt;br style=&quot;&quot;&gt;&lt;span style=&quot;&quot;&gt;+getAnimationPeriod()&lt;br&gt;&lt;/span&gt;&lt;span style=&quot;&quot;&gt;+executeActivity()&lt;br&gt;&lt;/span&gt;+transformNotFull&lt;br&gt;+moveToNotFull" style="text;html=1;strokeColor=none;fillColor=none;align=center;verticalAlign=middle;whiteSpace=wrap;rounded=0;fontSize=11;fontColor=#000000;" vertex="1" parent="110"><mxGeometry y="26" width="250" height="384" as="geometry"/></mxCell></root></mxGraphModel></diagram></mxfile>